<?xml version="1.0" encoding="UTF-8" standalone="no"?>
<!-- Created with Inkscape (http://www.inkscape.org/) -->

<svg
   width="105mm"
   height="105mm"
   viewBox="0 0 105 105"
   version="1.1"
   id="svg1"
   xml:space="preserve"
   xmlns="http://www.w3.org/2000/svg"
   xmlns:svg="http://www.w3.org/2000/svg"><defs
     id="defs1" /><g
     id="layer1"
     transform="translate(-49.878658,-122.51538)"><g
       id="g9"><path
         style="fill:#82932c;fill-opacity:1"
         d="m 96.581882,224.82322 c -2.60108,-0.27333 -6.75839,-1.2318 -9.90139,-2.28277 -2.81012,-0.93965 -7.95326,-3.46582 -10.52357,-5.16889 -2.34502,-1.55379 -6.07957,-4.62843 -7.35629,-6.05643 -4.27032,-4.77626 -6.16051,-7.47845 -8.20769,-11.73361 -2.55632,-5.31344 -3.59762,-9.63073 -3.60559,-14.94896 -0.007,-4.80066 1.14652,-7.67291 3.08203,-7.67291 0.9401,0 1.98445,0.91414 1.98424,1.73684 -8e-5,0.28166 -0.2382,1.13847 -0.52917,1.90402 -0.41572,1.09375 -0.52903,2.03262 -0.52903,4.38317 0,3.63443 0.27746,5.29542 1.48825,8.9093 3.18106,9.49453 10.69245,17.94583 20.09313,22.60739 6.86229,3.40284 13.65558,4.8503 21.413408,4.56261 8.42779,-0.31255 16.03256,-2.68994 22.75417,-7.11339 2.73218,-1.79803 3.13743,-2.14187 6.63208,-5.62716 6.68559,-6.66768 10.21042,-14.47709 10.27461,-22.76383 0.0236,-3.04206 -0.0422,-3.58871 -0.56867,-4.72998 -0.75371,-1.63376 -0.75862,-2.63788 -0.0162,-3.3295 0.7388,-0.6883 1.80606,-0.68941 2.54322,-0.003 2.65308,2.47171 2.89559,10.23068 0.54557,17.45482 -0.91094,2.80031 -3.302,7.61617 -5.1889,10.45105 -2.83917,4.26556 -9.58175,10.55294 -13.9453,13.00383 -5.45292,3.06275 -10.05569,4.8046 -15.69242,5.93855 -3.27112,0.65806 -10.73351,0.90019 -14.746438,0.47848 z m 9.260408,-9.05648 c -2.33411,-0.77124 -3.94024,-2.52505 -5.08499,-4.46994 -0.58504,-0.99396 -0.73584,-2.06585 -0.73584,-3.3809 v -63.43386 c 0,0 0.35618,-2.88436 1.02912,-4.13533 1.28164,-2.38254 3.62967,-5.17531 5.4915,-5.97624 2.04679,-0.88051 3.45417,-0.27302 3.45417,1.49097 0,0.81499 -0.16626,1.14461 -0.87636,1.73742 -0.482,0.40239 -1.02487,0.73162 -1.20639,0.73162 -0.57967,0 -2.46473,2.06879 -3.07186,3.37126 -0.66464,1.00082 -0.58685,1.91393 -0.58685,3.06826 v 31.44264 c 0,33.21554 6e-4,33.25277 0.54798,33.99896 0.82236,1.12105 2.12428,1.67223 3.94994,1.67223 1.92605,0 3.23038,-0.59398 3.91723,-1.78387 l 0.49564,-0.85864 -0.85351,-0.46427 c -1.92691,-1.04816 -2.90977,-2.12932 -3.82119,-3.63172 -0.54529,-0.89886 -0.81189,-1.8622 -0.8709,-3.03135 -0.8193,-16.23313 0.0309,-55.52764 0.17743,-57.10983 0.28572,-3.08491 0.77951,-4.18526 2.72012,-6.06144 1.63132,-1.57716 3.70688,-2.30085 6.14255,-2.14175 2.19396,0.14331 3.5548,0.75539 4.96847,2.2347 1.52845,1.59944 2.18463,3.11469 2.29677,5.30375 0.12174,2.37667 -0.28144,3.62671 -1.98234,6.14603 -2.60968,3.86538 -2.34235,0.99483 -2.34235,25.15129 v 20.17448 c 0,0 -0.048,0.75274 0,1.12448 0.12719,0.98464 0.75686,2.88068 0.75686,2.88068 1.13614,4.32426 0.63717,6.57455 -1.85462,8.36401 -1.90151,1.36556 -1.21233,3.19935 -3.43931,5.4902 -1.63963,1.68666 -3.0174,2.24765 -5.78168,2.35413 -1.50466,0.058 -2.77084,-0.037 -3.43958,-0.25797 z m 10.24645,-10.9597 c 0.74085,-0.84367 0.76984,-1.58879 0.15388,-3.95449 -0.60545,-2.32538 -0.60662,-2.36711 -0.68348,-24.3905 -0.0688,-19.72515 -0.0315,-22.21769 0.35277,-23.5395 0.38861,-1.33678 0.90893,-2.23685 2.91407,-5.04089 1.48639,-2.0786 1.42957,-4.29707 -0.15136,-5.90986 -0.89431,-0.91233 -1.09756,-0.99549 -2.43318,-0.99549 -1.71589,0 -2.92535,0.67929 -3.77026,2.11757 -0.53946,0.91831 -0.54347,1.14296 -0.54347,30.42618 0,29.08558 0.007,29.51115 0.52917,30.21829 1.01697,1.37842 2.8788,1.92628 3.63186,1.06869 z m -29.498988,8.64678 c -2.46681,-0.59347 -4.50749,-2.29539 -5.66579,-4.72525 -0.56726,-1.18998 -0.70264,-1.85663 -0.70231,-3.45851 4.7e-4,-2.28146 0.53549,-3.56864 2.56013,-6.15934 2.15756,-2.76076 2.0546,-1.48351 1.96939,-24.43044 -0.0859,-23.12836 0.20406,-20.4171 -2.59991,-24.31126 -1.16819,-1.62238 -1.59909,-2.4849 -1.84525,-3.69352 -0.62877,-3.08726 0.25817,-5.98548 2.42905,-7.93728 1.71295,-1.5401 3.4094,-2.09792 5.89508,-1.93839 3.82139,0.24524 6.6487,2.76411 7.50925,6.69002 0.20295,0.92592 0.27316,10.69225 0.23394,32.54375 l -0.056,31.22084 -0.70528,1.45521 c -1.73388,3.57756 -5.54392,5.58099 -9.02227,4.74417 z m 3.51396,-4.44337 c 0.50706,-0.27112 1.16004,-0.89619 1.45108,-1.38906 0.52112,-0.88248 0.52917,-1.37121 0.52917,-32.12562 0,-30.16898 -0.0172,-31.26754 -0.50524,-32.34982 -0.65396,-1.4501 -1.81396,-2.16993 -3.49474,-2.16865 -2.525,0.002 -3.95813,1.59127 -3.74562,4.15387 0.0889,1.07156 0.33732,1.72991 1.00717,2.6687 2.11525,2.96457 2.65226,3.87855 3.03713,5.16916 0.35324,1.18454 0.40669,4.17542 0.39719,22.22462 -0.0126,23.86032 0.12128,22.43738 -2.44268,25.96568 -2.1141,2.90922 -2.43058,4.03076 -1.65874,5.87805 0.88665,2.12204 3.42214,3.04415 5.42528,1.97307 z m 37.542838,-7.7911 c -1.44078,-0.53963 -2.71835,-1.77144 -3.62726,-3.06829 -0.43675,-0.62316 -0.72113,-1.29548 -0.7912,-2.14141 -0.0528,-13.76889 0.013,-39.39601 0.21187,-40.21667 0.40299,-1.66296 1.69511,-3.46385 3.24328,-4.52031 1.14518,-0.78147 1.56647,-0.90926 3.28336,-0.99596 1.3941,-0.0704 2.29344,0.0269 3.07785,0.33288 4.83011,1.88429 7.84754,10.99303 7.85244,23.70422 0.005,13.74964 -3.09255,23.94095 -8.05935,26.51365 -1.31233,0.67975 -3.90072,0.87516 -5.19102,0.39189 z m 3.56841,-4.14098 c 2.27886,-0.86642 4.70022,-7.83242 5.47281,-15.74468 0.46358,-4.74754 0.18996,-13.57615 -0.53204,-17.1671 -0.85465,-4.25067 -1.97784,-7.14165 -3.31808,-8.5404 -0.99327,-1.03664 -1.23342,-1.15613 -2.32345,-1.15613 -1.43017,0 -2.71971,0.90085 -2.94549,2.05768 -0.22821,1.16929 -0.48248,35.65721 -0.27703,37.57567 0.15261,1.42506 0.32697,1.89517 0.92452,2.49272 0.78171,0.78171 1.78622,0.94325 2.99876,0.48224 z m -58.974748,3.50498 c -4.07715,-1.39314 -6.82927,-7.27001 -8.21314,-17.53829 -0.35194,-2.61138 -0.44305,-11.97327 -0.14104,-14.49232 1.03193,-8.60725 2.6546,-13.36164 5.51588,-16.1614 1.70823,-1.6715 2.85188,-2.15461 5.10057,-2.15461 2.54703,0 4.65005,2.20797 6.0474,4.23333 0.52954,0.76753 0.68616,1.66645 0.68616,2.71198 v 37.2401 c 0.162,1.08412 -0.18232,1.85231 -0.61902,2.64584 -0.70995,1.29005 -1.66283,2.43633 -3.09531,3.15174 -1.59074,0.79446 -3.61316,0.9337 -5.2815,0.36363 z m 3.5335,-4.15699 c 0.40101,-0.20736 0.87135,-0.68922 1.0452,-1.07078 0.39807,-0.87367 0.45714,-37.61906 0.0627,-38.99445 -0.41303,-1.44014 -1.22629,-1.96155 -2.85247,-1.82885 -1.12145,0.0915 -1.51608,0.26055 -2.06702,0.88534 -1.49383,1.69412 -2.78574,5.34372 -3.70559,10.46819 -1.10259,6.14253 -0.66468,16.92071 0.94067,23.1524 1.60986,6.24919 3.86969,8.78791 6.57652,7.38815 z m -16.43502,-23.1938 c -0.69268,-0.40334 -1.68959,-2.5488 -2.06061,-4.43463 -0.2139,-1.08723 -0.27297,-2.77654 -0.17084,-4.88598 0.22873,-4.7247 1.45592,-9.28934 3.78928,-14.09455 1.01946,-2.09945 1.86534,-3.4849 4.54084,-7.43741 1.01845,-1.50456 5.88214,-6.24456 8.198,-7.98951 6.06682,-4.57124 12.94187,-7.53609 20.69756,-8.92579 1.82938,-0.32779 4.0619,-0.45442 8.202078,-0.46521 4.93431,-0.0129 6.09197,0.0665 8.73125,0.59813 5.58007,1.12411 8.44037,2.0911 12.78199,4.32124 9.8441,5.05656 17.61674,13.37201 21.31124,22.79952 1.95562,4.9903 2.54956,8.28142 2.34106,12.97227 -0.16841,3.78891 -0.6114,5.5387 -1.64899,6.51347 -0.84532,0.79414 -2.19354,0.77151 -2.8571,-0.048 -0.54163,-0.66888 -0.5074,-1.2521 0.22273,-3.79547 0.67778,-2.36102 0.4052,-7.26818 -0.61088,-10.99729 -1.75097,-6.42615 -4.93676,-11.56298 -10.38269,-16.74115 -12.7071,-12.08235 -32.428698,-15.20581 -48.605678,-7.69805 -11.07546,5.14014 -18.87757,14.0519 -21.75859,24.8532 -1.24389,4.66351 -1.37686,9.77806 -0.31298,12.03855 0.69422,1.47506 0.72695,2.68815 0.0881,3.26628 -0.54044,0.48909 -1.7853,0.5641 -2.49579,0.15038 z"
         id="path1" /></g></g><g
     id="layer2"
     style="display:none"
     transform="translate(-49.878658,-122.51538)"><ellipse
       style="fill:none;stroke:#000000;stroke-width:3;stroke-linecap:round;stroke-linejoin:round"
       id="path2"
       cx="94.274467"
       cy="171.53699"
       rx="76.716743"
       ry="79.611755" /></g></svg>
